<?xml version="1.0" encoding="UTF-8"?>
<svg width="24px" height="24px" viewBox="0 0 24 24" version="1.1" xmlns="http://www.w3.org/2000/svg" xmlns:xlink="http://www.w3.org/1999/xlink">
    <title>hamburger</title>
    <g id="Page-1" stroke="none" stroke-width="1" fill="none" fill-rule="evenodd">
        <g id="hamburger">
            <polygon id="Path" points="0 0 24 0 24 24 0 24"></polygon>
            <path d="M4,18 L20,18 C20.5522847,18 21,17.5522847 21,17 C21,16.4477153 20.5522847,16 20,16 L4,16 C3.44771525,16 3,16.4477153 3,17 C3,17.5522847 3.44771525,18 4,18 Z M4,13 L20,13 C20.5522847,13 21,12.5522847 21,12 C21,11.4477153 20.5522847,11 20,11 L4,11 C3.44771525,11 3,11.4477153 3,12 C3,12.5522847 3.44771525,13 4,13 Z M3,7 C3,7.55228475 3.44771525,8 4,8 L20,8 C20.5522847,8 21,7.55228475 21,7 C21,6.44771525 20.5522847,6 20,6 L4,6 C3.44771525,6 3,6.44771525 3,7 Z" id="Shape" fill="#000000" fill-rule="nonzero"></path>
        </g>
    </g>
</svg>