<?xml version="1.0" encoding="UTF-8"?>
<svg width="115px" height="32px" viewBox="0 0 115 32" version="1.1" xmlns="http://www.w3.org/2000/svg" xmlns:xlink="http://www.w3.org/1999/xlink">
    <title>logo</title>
    <g id="Page-1" stroke="none" stroke-width="1" fill="none" fill-rule="evenodd">
        <g id="logo" fill-rule="nonzero">
            <g id="Group" transform="translate(44.000000, 5.000000)" fill="#000000">
                <path d="M8.304,18 L8.304,5.088 L13.392,5.088 L13.392,2.16 L0,2.16 L0,5.088 L5.064,5.088 L5.064,18 L8.304,18 Z M18.672,18.288 C20.208,18.288 21.456,17.736 22.296,16.848 L22.296,18 L25.272,18 L25.272,10.944 C25.272,7.56 23.208,5.856 20.184,5.856 C18.096,5.856 16.392,6.648 15,8.304 L16.68,10.296 C17.664,9.264 18.552,8.664 19.824,8.664 C21.288,8.664 22.032,9.456 22.032,10.752 L22.032,11.28 L19.056,11.28 C16.32,11.28 14.568,12.576 14.568,14.736 C14.568,16.752 16.08,18.288 18.672,18.288 Z M19.536,15.912 C18.528,15.912 17.832,15.432 17.832,14.616 C17.832,13.824 18.432,13.416 19.488,13.416 L22.032,13.416 L22.032,13.56 C22.032,14.952 20.904,15.912 19.536,15.912 Z M32.232,18.288 C34.824,18.288 36.864,16.944 36.864,14.496 C36.864,12.648 35.664,11.736 33.528,10.872 L32.376,10.392 C31.512,10.032 31.128,9.792 31.128,9.336 C31.128,8.76 31.632,8.496 32.4,8.496 C33.36,8.496 34.296,8.904 35.064,9.624 L36.696,7.632 C35.616,6.432 34.152,5.856 32.424,5.856 C29.904,5.856 28.056,7.128 28.056,9.408 C28.056,11.28 29.28,12.216 31.296,13.032 L32.568,13.56 C33.288,13.872 33.792,14.088 33.792,14.64 C33.792,15.312 33.096,15.624 32.28,15.624 C31.008,15.624 29.904,15 28.944,14.016 L27.312,15.984 C28.368,17.376 30.12,18.288 32.232,18.288 Z M42.552,18 L42.552,11.424 L47.328,18 L51.024,18 L46.2,11.376 L50.664,6.12 L46.824,6.12 L42.552,11.184 L42.552,0 L39.312,0 L39.312,18 L42.552,18 Z M55.992,18 L55.992,0 L52.752,0 L52.752,18 L55.992,18 Z M60.312,22.608 C62.544,22.608 63.96,21.48 65.04,19.032 L70.728,6.12 L67.32,6.12 L64.224,13.92 L61.32,6.12 L57.888,6.12 L62.448,17.28 L62.088,18.096 C61.488,19.44 60.648,19.704 59.616,19.704 C59.232,19.704 58.776,19.656 58.224,19.608 L58.224,22.32 C58.848,22.488 59.64,22.608 60.312,22.608 Z" id="Taskly"></path>
            </g>
            <path d="M16,0 C21.0168774,0 25.4944604,2.30899386 28.4280176,5.9222502 L16.1505546,17.9739624 L9.73453575,11.676307 C9.59832334,11.5426008 9.37725731,11.5426008 9.24072591,11.676307 L9.24072591,11.676307 L7.1021593,13.7755255 C6.9659469,13.9095448 6.9659469,14.1265434 7.1021593,14.2599364 L7.1021593,14.2599364 L15.9033307,22.8994855 C16.0395431,23.0335048 16.2606091,23.0335048 16.3971405,22.8994855 L16.3971405,22.8994855 L30.4451721,9.11116208 C31.441929,11.1975069 32,13.5335812 32,16 C32,24.836556 24.836556,32 16,32 C7.163444,32 0,24.836556 0,16 C0,7.163444 7.163444,0 16,0 Z" id="Combined-Shape" fill="#FF3339"></path>
        </g>
    </g>
</svg>